<?xml version="1.0" encoding="UTF-8"?>
<svg version="1.1" xmlns="http://www.w3.org/2000/svg" width="1920" height="1920">
<path d="M0 0 C633.6 0 1267.2 0 1920 0 C1920 633.6 1920 1267.2 1920 1920 C1286.4 1920 652.8 1920 0 1920 C0 1286.4 0 652.8 0 0 Z " fill="#FEFEFE" transform="translate(0,0)"/>
<path d="M0 0 C1.27683655 -0.00570007 2.5536731 -0.01140015 3.86920166 -0.01727295 C6.55508973 -0.02666288 9.24086776 -0.03359084 11.92675781 -0.03710938 C14.64564435 -0.04149363 17.36421348 -0.05540299 20.08300781 -0.078125 C60.06618322 -0.4051512 60.06618322 -0.4051512 73.265625 10.203125 C74.26335937 10.99009766 74.26335937 10.99009766 75.28125 11.79296875 C81.35427085 17.19267642 85.62546119 25.25668745 87.265625 33.203125 C87.35323551 34.72476342 87.39687843 36.24930783 87.40625 37.7734375 C87.85938729 63.50649683 95.09031395 83.84078713 113.89453125 102.07421875 C122.82913008 110.09622264 133.34439847 115.84373752 145.015625 118.765625 C155.96098567 121.53760491 164.75449752 128.10504731 171.453125 137.16015625 C177.44999502 147.35241719 178.40037393 159.76667686 175.79174805 171.29785156 C175.43322857 172.60526013 175.07370573 173.91239401 174.71313477 175.21923828 C170.28501442 194.84984709 177.00224365 215.7896202 187.21484375 232.3671875 C198.40301521 248.47996993 214.69808997 260.53513344 234.0246582 264.81396484 C243.93107768 266.58652203 253.68809264 266.30941306 263.69897461 266.01123047 C272.58656594 265.76481106 280.25910672 265.78174879 288.265625 270.203125 C289.22855469 270.73292969 290.19148438 271.26273438 291.18359375 271.80859375 C299.52136208 277.62063536 304.28188957 284.308608 309.140625 293.140625 C315.79153076 305.19871876 325.69521214 314.34186515 336.890625 322.203125 C350.47290958 331.94817673 353.70084367 343.78926217 357.4453125 359.52148438 C359.904654 369.23929904 363.98953438 376.80580938 370.390625 384.515625 C371.03257812 385.29550781 371.67453125 386.07539062 372.3359375 386.87890625 C372.97273438 387.64589844 373.60953125 388.41289063 374.265625 389.203125 C375.17634766 390.42902344 375.17634766 390.42902344 376.10546875 391.6796875 C378.66214311 394.66632699 381.56058823 396.94194353 384.703125 399.265625 C386.8916174 400.91014231 389.07851468 402.55676901 391.265625 404.203125 C392.15121094 404.85925781 393.03679688 405.51539063 393.94921875 406.19140625 C401.32493767 412.59696315 405.53045094 422.24485781 406.54296875 431.828125 C407.41949418 457.07205725 398.50248085 485.2157938 391.265625 509.203125 C390.88857422 510.46576172 390.88857422 510.46576172 390.50390625 511.75390625 C385.9163658 526.2590197 379.36439238 540.28736166 373.265625 554.203125 C372.79068604 555.29729736 372.79068604 555.29729736 372.30615234 556.41357422 C358.1242473 588.84577521 337.29075496 618.48393214 314.265625 645.203125 C313.68554688 645.88503906 313.10546875 646.56695313 312.5078125 647.26953125 C310.78628185 649.2722164 309.03404007 651.24160713 307.265625 653.203125 C306.80381836 653.71536621 306.34201172 654.22760742 305.86621094 654.75537109 C282.06025308 681.03036793 254.69864617 703.97219298 224.265625 722.203125 C223.20988281 722.86441406 222.15414062 723.52570312 221.06640625 724.20703125 C212.81087496 729.34887634 204.26957031 733.91195928 195.640625 738.390625 C194.52091309 738.97279785 193.40120117 739.5549707 192.24755859 740.15478516 C181.9398606 745.46188321 171.60093285 750.67188452 160.578125 754.328125 C156.13015195 755.82936952 151.75256113 757.39830628 147.4140625 759.1953125 C142.23279824 761.29084825 136.98020513 762.79182257 131.578125 764.203125 C130.61189209 764.4602124 129.64565918 764.7172998 128.65014648 764.98217773 C126.72504476 765.49411659 124.79936053 766.00387092 122.87304688 766.51123047 C120.68154459 767.09275832 118.49580134 767.68938786 116.3125 768.30078125 C112.64175111 769.31723302 108.96021796 770.27817279 105.265625 771.203125 C104.08371582 771.50283203 104.08371582 771.50283203 102.87792969 771.80859375 C86.15850259 775.97110672 69.41781102 777.82446229 52.265625 779.203125 C51.19586426 779.29883789 50.12610352 779.39455078 49.02392578 779.49316406 C38.11429294 780.3978416 27.20580476 780.44555248 16.265625 780.453125 C15.2521701 780.45413208 14.23871521 780.45513916 13.19454956 780.45617676 C-56.57103985 780.40949015 -56.57103985 780.40949015 -79.62841797 768.20019531 C-82.02596974 767.06506878 -84.10902457 766.70627106 -86.73046875 766.3203125 C-92.98215148 765.25535708 -98.81046875 763.38870501 -104.796875 761.328125 C-105.80814453 760.98910156 -106.81941406 760.65007813 -107.86132812 760.30078125 C-144.27113273 747.96880622 -178.82170255 730.02056616 -209.734375 707.203125 C-210.62511719 706.57535156 -211.51585937 705.94757812 -212.43359375 705.30078125 C-227.63217926 694.55499508 -241.40453156 682.15481686 -254.734375 669.203125 C-255.41338867 668.54602539 -256.09240234 667.88892578 -256.79199219 667.21191406 C-263.82699853 660.38013371 -270.5612993 653.52092631 -276.6328125 645.80078125 C-278.86559914 643.04092415 -281.24037152 640.47644991 -283.671875 637.890625 C-288.8831592 632.22618566 -293.26486321 626.13727756 -297.62207031 619.81201172 C-299.15672879 617.59221379 -300.7307299 615.40078022 -302.296875 613.203125 C-316.54568929 592.67293086 -328.3146999 570.89560388 -338.734375 548.203125 C-339.3696814 546.83293213 -339.3696814 546.83293213 -340.01782227 545.43505859 C-347.50387694 529.17514841 -353.16604039 512.49524914 -357.734375 495.203125 C-357.9195166 494.51476563 -358.1046582 493.82640625 -358.29541016 493.1171875 C-359.53242802 488.49836915 -360.65401472 483.8602421 -361.734375 479.203125 C-361.92354492 478.40825684 -362.11271484 477.61338867 -362.30761719 476.79443359 C-363.9909477 469.6341799 -365.42019447 462.43982749 -366.734375 455.203125 C-366.96866211 453.91825195 -367.20294922 452.63337891 -367.44433594 451.30957031 C-371.1564752 430.34638362 -372.21511647 409.60367269 -372.234375 388.328125 C-372.23877594 387.15636719 -372.24317688 385.98460937 -372.24771118 384.77734375 C-372.27295334 368.69456561 -371.09485357 353.10569125 -368.734375 337.203125 C-368.5272556 335.73324536 -368.32125743 334.26320701 -368.11669922 332.79296875 C-362.63615178 294.43393154 -351.46579272 257.18472567 -334.734375 222.203125 C-334.31978027 221.32317871 -333.90518555 220.44323242 -333.47802734 219.53662109 C-317.70962348 186.21860246 -296.20648464 156.60831285 -272.13525391 128.84960938 C-271.18268106 127.73002916 -270.2479209 126.59509965 -269.32958984 125.44726562 C-268.17099715 123.99976717 -266.95708405 122.59688661 -265.734375 121.203125 C-265.074375 121.203125 -264.414375 121.203125 -263.734375 121.203125 C-263.47640137 120.61539307 -263.21842773 120.02766113 -262.95263672 119.42211914 C-261.63369333 117.01973909 -260.24795041 115.55743069 -258.2421875 113.69921875 C-257.54327393 113.04655029 -256.84436035 112.39388184 -256.12426758 111.72143555 C-255.37685303 111.03476807 -254.62943848 110.34810059 -253.859375 109.640625 C-252.70634888 108.57098511 -252.70634888 108.57098511 -251.5300293 107.47973633 C-249.98141256 106.04461045 -248.4305766 104.61187527 -246.87744141 103.18164062 C-245.05213088 101.49648267 -243.23918983 99.79995026 -241.43359375 98.09375 C-214.0191133 72.42281567 -181.43586027 52.47251274 -147.734375 36.203125 C-147.1043457 35.89777832 -146.47431641 35.59243164 -145.82519531 35.27783203 C-131.94265352 28.57973806 -117.78300858 22.98988438 -103.109375 18.265625 C-102.45560883 18.05446045 -101.80184265 17.8432959 -101.12826538 17.62573242 C-83.00612287 11.80148923 -64.55691385 7.11739398 -45.734375 4.203125 C-44.86981689 4.06503418 -44.00525879 3.92694336 -43.11450195 3.78466797 C-40.65579019 3.39409198 -38.19548729 3.01574615 -35.734375 2.640625 C-34.93515625 2.51494141 -34.1359375 2.38925781 -33.3125 2.25976562 C-22.22666269 0.57394164 -11.20469264 0.03967228 0 0 Z " fill="#FEFEFE" transform="translate(921.734375,614.796875)"/>
<path d="M0 0 C1.27683655 -0.00570007 2.5536731 -0.01140015 3.86920166 -0.01727295 C6.55508973 -0.02666288 9.24086776 -0.03359084 11.92675781 -0.03710938 C14.64564435 -0.04149363 17.36421348 -0.05540299 20.08300781 -0.078125 C60.06618322 -0.4051512 60.06618322 -0.4051512 73.265625 10.203125 C74.26335937 10.99009766 74.26335937 10.99009766 75.28125 11.79296875 C81.35427085 17.19267642 85.62546119 25.25668745 87.265625 33.203125 C87.35323551 34.72476342 87.39687843 36.24930783 87.40625 37.7734375 C87.85938729 63.50649683 95.09031395 83.84078713 113.89453125 102.07421875 C122.82913008 110.09622264 133.34439847 115.84373752 145.015625 118.765625 C155.96098567 121.53760491 164.75449752 128.10504731 171.453125 137.16015625 C177.44999502 147.35241719 178.40037393 159.76667686 175.79174805 171.29785156 C175.43322857 172.60526013 175.07370573 173.91239401 174.71313477 175.21923828 C170.28501442 194.84984709 177.00224365 215.7896202 187.21484375 232.3671875 C198.40301521 248.47996993 214.69808997 260.53513344 234.0246582 264.81396484 C243.93107768 266.58652203 253.68809264 266.30941306 263.69897461 266.01123047 C272.58656594 265.76481106 280.25910672 265.78174879 288.265625 270.203125 C289.22855469 270.73292969 290.19148438 271.26273438 291.18359375 271.80859375 C299.52136208 277.62063536 304.28188957 284.308608 309.140625 293.140625 C315.79153076 305.19871876 325.69521214 314.34186515 336.890625 322.203125 C350.47290958 331.94817673 353.70084367 343.78926217 357.4453125 359.52148438 C359.904654 369.23929904 363.98953438 376.80580938 370.390625 384.515625 C371.03257812 385.29550781 371.67453125 386.07539062 372.3359375 386.87890625 C372.97273438 387.64589844 373.60953125 388.41289063 374.265625 389.203125 C375.17634766 390.42902344 375.17634766 390.42902344 376.10546875 391.6796875 C378.66214311 394.66632699 381.56058823 396.94194353 384.703125 399.265625 C386.8916174 400.91014231 389.07851468 402.55676901 391.265625 404.203125 C392.15121094 404.85925781 393.03679688 405.51539063 393.94921875 406.19140625 C401.32493767 412.59696315 405.53045094 422.24485781 406.54296875 431.828125 C407.41949418 457.07205725 398.50248085 485.2157938 391.265625 509.203125 C390.88857422 510.46576172 390.88857422 510.46576172 390.50390625 511.75390625 C385.9163658 526.2590197 379.36439238 540.28736166 373.265625 554.203125 C372.79068604 555.29729736 372.79068604 555.29729736 372.30615234 556.41357422 C358.1242473 588.84577521 337.29075496 618.48393214 314.265625 645.203125 C313.68554688 645.88503906 313.10546875 646.56695313 312.5078125 647.26953125 C310.78628185 649.2722164 309.03404007 651.24160713 307.265625 653.203125 C306.80381836 653.71536621 306.34201172 654.22760742 305.86621094 654.75537109 C282.06025308 681.03036793 254.69864617 703.97219298 224.265625 722.203125 C223.20988281 722.86441406 222.15414062 723.52570312 221.06640625 724.20703125 C212.81087496 729.34887634 204.26957031 733.91195928 195.640625 738.390625 C194.52091309 738.97279785 193.40120117 739.5549707 192.24755859 740.15478516 C181.9398606 745.46188321 171.60093285 750.67188452 160.578125 754.328125 C156.13015195 755.82936952 151.75256113 757.39830628 147.4140625 759.1953125 C142.23279824 761.29084825 136.98020513 762.79182257 131.578125 764.203125 C130.61189209 764.4602124 129.64565918 764.7172998 128.65014648 764.98217773 C126.72504476 765.49411659 124.79936053 766.00387092 122.87304688 766.51123047 C120.68154459 767.09275832 118.49580134 767.68938786 116.3125 768.30078125 C112.64175111 769.31723302 108.96021796 770.27817279 105.265625 771.203125 C104.08371582 771.50283203 104.08371582 771.50283203 102.87792969 771.80859375 C86.15850259 775.97110672 69.41781102 777.82446229 52.265625 779.203125 C51.19586426 779.29883789 50.12610352 779.39455078 49.02392578 779.49316406 C38.11429294 780.3978416 27.20580476 780.44555248 16.265625 780.453125 C15.2521701 780.45413208 14.23871521 780.45513916 13.19454956 780.45617676 C-56.57103985 780.40949015 -56.57103985 780.40949015 -79.62841797 768.20019531 C-82.02596974 767.06506878 -84.10902457 766.70627106 -86.73046875 766.3203125 C-92.98215148 765.25535708 -98.81046875 763.38870501 -104.796875 761.328125 C-105.80814453 760.98910156 -106.81941406 760.65007813 -107.86132812 760.30078125 C-144.27113273 747.96880622 -178.82170255 730.02056616 -209.734375 707.203125 C-210.62511719 706.57535156 -211.51585937 705.94757812 -212.43359375 705.30078125 C-227.63217926 694.55499508 -241.40453156 682.15481686 -254.734375 669.203125 C-255.41338867 668.54602539 -256.09240234 667.88892578 -256.79199219 667.21191406 C-263.82699853 660.38013371 -270.5612993 653.52092631 -276.6328125 645.80078125 C-278.86559914 643.04092415 -281.24037152 640.47644991 -283.671875 637.890625 C-288.8831592 632.22618566 -293.26486321 626.13727756 -297.62207031 619.81201172 C-299.15672879 617.59221379 -300.7307299 615.40078022 -302.296875 613.203125 C-316.54568929 592.67293086 -328.3146999 570.89560388 -338.734375 548.203125 C-339.3696814 546.83293213 -339.3696814 546.83293213 -340.01782227 545.43505859 C-347.50387694 529.17514841 -353.16604039 512.49524914 -357.734375 495.203125 C-357.9195166 494.51476563 -358.1046582 493.82640625 -358.29541016 493.1171875 C-359.53242802 488.49836915 -360.65401472 483.8602421 -361.734375 479.203125 C-361.92354492 478.40825684 -362.11271484 477.61338867 -362.30761719 476.79443359 C-363.9909477 469.6341799 -365.42019447 462.43982749 -366.734375 455.203125 C-366.96866211 453.91825195 -367.20294922 452.63337891 -367.44433594 451.30957031 C-371.1564752 430.34638362 -372.21511647 409.60367269 -372.234375 388.328125 C-372.23877594 387.15636719 -372.24317688 385.98460937 -372.24771118 384.77734375 C-372.27295334 368.69456561 -371.09485357 353.10569125 -368.734375 337.203125 C-368.5272556 335.73324536 -368.32125743 334.26320701 -368.11669922 332.79296875 C-362.63615178 294.43393154 -351.46579272 257.18472567 -334.734375 222.203125 C-334.31978027 221.32317871 -333.90518555 220.44323242 -333.47802734 219.53662109 C-317.70962348 186.21860246 -296.20648464 156.60831285 -272.13525391 128.84960938 C-271.18268106 127.73002916 -270.2479209 126.59509965 -269.32958984 125.44726562 C-268.17099715 123.99976717 -266.95708405 122.59688661 -265.734375 121.203125 C-265.074375 121.203125 -264.414375 121.203125 -263.734375 121.203125 C-263.47640137 120.61539307 -263.21842773 120.02766113 -262.95263672 119.42211914 C-261.63369333 117.01973909 -260.24795041 115.55743069 -258.2421875 113.69921875 C-257.54327393 113.04655029 -256.84436035 112.39388184 -256.12426758 111.72143555 C-255.37685303 111.03476807 -254.62943848 110.34810059 -253.859375 109.640625 C-252.70634888 108.57098511 -252.70634888 108.57098511 -251.5300293 107.47973633 C-249.98141256 106.04461045 -248.4305766 104.61187527 -246.87744141 103.18164062 C-245.05213088 101.49648267 -243.23918983 99.79995026 -241.43359375 98.09375 C-214.0191133 72.42281567 -181.43586027 52.47251274 -147.734375 36.203125 C-147.1043457 35.89777832 -146.47431641 35.59243164 -145.82519531 35.27783203 C-131.94265352 28.57973806 -117.78300858 22.98988438 -103.109375 18.265625 C-102.45560883 18.05446045 -101.80184265 17.8432959 -101.12826538 17.62573242 C-83.00612287 11.80148923 -64.55691385 7.11739398 -45.734375 4.203125 C-44.86981689 4.06503418 -44.00525879 3.92694336 -43.11450195 3.78466797 C-40.65579019 3.39409198 -38.19548729 3.01574615 -35.734375 2.640625 C-34.93515625 2.51494141 -34.1359375 2.38925781 -33.3125 2.25976562 C-22.22666269 0.57394164 -11.20469264 0.03967228 0 0 Z M-37.359375 41.890625 C-38.13507843 42.02284454 -38.91078186 42.15506409 -39.70999146 42.29129028 C-64.17655792 46.4768591 -87.73065253 52.82436302 -110.734375 62.203125 C-111.45447754 62.4913916 -112.17458008 62.7796582 -112.91650391 63.07666016 C-139.93860373 73.9168119 -165.49109148 87.61378107 -188.734375 105.203125 C-189.77972412 105.99372314 -189.77972412 105.99372314 -190.84619141 106.80029297 C-196.1964123 110.86720345 -201.48391032 115.0083609 -206.734375 119.203125 C-207.62261963 119.90912842 -207.62261963 119.90912842 -208.52880859 120.62939453 C-217.0477878 127.46418487 -224.80818555 135.07442068 -232.546875 142.765625 C-233.2796315 143.490345 -233.2796315 143.490345 -234.02719116 144.22970581 C-240.72713052 150.87380882 -246.85485013 157.82288981 -252.734375 165.203125 C-254.14773734 166.8933935 -255.56402095 168.58122746 -256.984375 170.265625 C-283.46652261 202.84141557 -304.3120951 241.08006766 -316.734375 281.203125 C-317.12882813 282.37488281 -317.52328125 283.54664063 -317.9296875 284.75390625 C-323.97996403 303.07597009 -327.99158553 322.11871581 -330.734375 341.203125 C-330.91540771 342.44723145 -331.09644043 343.69133789 -331.28295898 344.97314453 C-333.00119407 357.89261509 -333.07282011 370.78648178 -333.05004883 383.80322266 C-333.0469095 387.53708709 -333.07035859 391.27014024 -333.09570312 395.00390625 C-333.16013033 418.3962771 -331.22851487 441.30194829 -325.796875 464.078125 C-325.45760287 465.56609193 -325.11971922 467.0543761 -324.78320312 468.54296875 C-322.73051128 477.5217421 -320.37357807 486.377288 -317.734375 495.203125 C-317.50355225 495.98091309 -317.27272949 496.75870117 -317.03491211 497.56005859 C-302.06363417 546.91136261 -273.716563 596.44745965 -236.4609375 632.4765625 C-234.77095541 634.16654459 -233.25329787 635.92179884 -231.734375 637.765625 C-229.00751235 641.02455841 -225.96084702 643.71484687 -222.7265625 646.4609375 C-220.85931765 648.09386143 -219.14175104 649.79241639 -217.421875 651.578125 C-212.85983411 656.19108153 -207.81337794 660.17997213 -202.734375 664.203125 C-201.70497803 665.02321045 -201.70497803 665.02321045 -200.65478516 665.85986328 C-191.94939216 672.7813798 -183.29793522 679.49375146 -173.734375 685.203125 C-172.80496094 685.78707031 -171.87554688 686.37101562 -170.91796875 686.97265625 C-167.5456767 689.08733747 -164.14834931 691.15674421 -160.734375 693.203125 C-159.98397949 693.65349121 -159.23358398 694.10385742 -158.46044922 694.56787109 C-141.93760666 704.41568294 -124.91971544 713.03525123 -106.6640625 719.19921875 C-104.08660458 720.08242766 -101.61305492 721.07071334 -99.109375 722.140625 C-77.16052134 730.98409516 -53.08446787 735.84165006 -29.734375 739.203125 C-28.49606934 739.38488281 -27.25776367 739.56664062 -25.98193359 739.75390625 C-12.91199228 741.50563122 0.13697919 741.50766572 13.30517578 741.46386719 C17.12678971 741.45316375 20.94793168 741.46380912 24.76953125 741.4765625 C44.17213481 741.48937484 62.83369833 740.19248511 81.890625 736.515625 C82.56539886 736.38651733 83.24017273 736.25740967 83.93539429 736.12438965 C135.49930301 726.20157251 186.45112589 705.36339417 228.265625 673.203125 C228.78898437 672.80303223 229.31234375 672.40293945 229.8515625 671.99072266 C234.03533349 668.78420923 238.1601378 665.50905024 242.265625 662.203125 C243.296875 661.38070312 244.328125 660.55828125 245.390625 659.7109375 C253.76906434 652.86447396 261.41565076 645.26462247 269.078125 637.640625 C269.61410309 637.10991394 270.15008118 636.57920288 270.70230103 636.03240967 C277.70683136 629.08112379 284.12568359 621.9384239 290.265625 614.203125 C291.67864192 612.51256773 293.09489633 610.82470657 294.515625 609.140625 C305.14288302 596.09220038 314.37028989 582.28755178 322.79541016 567.73046875 C323.84027614 565.93431254 324.89869436 564.14601003 325.96630859 562.36328125 C330.1134156 555.39732215 333.76978657 548.3243505 337.140625 540.953125 C337.91043701 539.27464478 337.91043701 539.27464478 338.69580078 537.56225586 C343.78254278 526.31050914 348.21238051 514.86377271 352.265625 503.203125 C352.55131348 502.38328125 352.83700195 501.5634375 353.13134766 500.71875 C358.89273776 483.93813698 363.16671378 466.56531372 366.140625 449.078125 C366.26074951 448.37486084 366.38087402 447.67159668 366.50463867 446.94702148 C367.50886817 440.58782807 367.50886817 440.58782807 367.265625 434.203125 C365.30459052 432.22026661 363.7395081 430.94270439 361.453125 429.453125 C360.24812905 428.59478977 359.04768041 427.73003944 357.8515625 426.859375 C357.24666992 426.42109375 356.64177734 425.9828125 356.01855469 425.53125 C341.68014111 414.66760517 332.5950557 399.26818809 325.265625 383.203125 C324.86730469 382.35621094 324.46898437 381.50929688 324.05859375 380.63671875 C322.33674924 376.69225425 321.16915144 372.87062455 320.33984375 368.65234375 C318.68453555 359.35090265 318.68453555 359.35090265 313.734375 351.62109375 C311.72329622 350.36416951 309.66769322 349.17629397 307.578125 348.0546875 C292.28673465 339.50737733 280.83230263 322.9041805 272.69140625 307.8359375 C271.50624027 305.34871964 271.50624027 305.34871964 270.265625 304.203125 C268.08784268 304.15180256 265.90843209 304.16797852 263.73046875 304.2109375 C262.35759948 304.23133122 260.98471406 304.25065884 259.61181641 304.26904297 C258.89133118 304.27949646 258.17084595 304.28994995 257.42852783 304.30072021 C245.43062082 304.44846877 233.90765198 304.56042006 222.265625 301.203125 C221.5746875 301.01508301 220.88375 300.82704102 220.171875 300.63330078 C203.86859151 296.12334758 188.96004994 288.45014822 176.265625 277.203125 C175.58628906 276.65398437 174.90695312 276.10484375 174.20703125 275.5390625 C165.29174924 268.20524377 158.70280903 258.69038837 152.265625 249.203125 C151.1828125 247.718125 151.1828125 247.718125 150.078125 246.203125 C147.57853922 242.06587958 145.961848 237.71692344 144.265625 233.203125 C143.770625 232.006875 143.275625 230.810625 142.765625 229.578125 C140.30187643 222.99910409 138.90398512 216.02224549 137.265625 209.203125 C137.08620361 208.62433594 136.90678223 208.04554688 136.72192383 207.44921875 C136.06112019 204.19646678 136.10292611 200.96152229 136.09765625 197.65625 C136.09432785 196.92621765 136.09099945 196.1961853 136.08757019 195.44403076 C136.08251654 193.9008446 136.08016138 192.35764755 136.08032227 190.81445312 C136.07814542 188.47507266 136.06000022 186.13617153 136.04101562 183.796875 C136.03807929 182.29166826 136.0360961 180.78645931 136.03515625 179.28125 C136.02797073 178.59138 136.02078522 177.90151001 136.01338196 177.19073486 C136.03644247 172.18988725 136.9743372 167.98999773 138.265625 163.203125 C138.43574513 160.36889008 138.43574513 160.36889008 138.265625 158.203125 C136.47436651 157.45215065 134.68259064 156.70241038 132.890625 155.953125 C131.78589844 155.49035156 130.68117188 155.02757812 129.54296875 154.55078125 C126.86046837 153.44772686 124.16725843 152.41128563 121.453125 151.390625 C93.39748132 140.07858947 74.08833163 119.67262195 60.265625 93.203125 C59.84539062 92.42839844 59.42515625 91.65367187 58.9921875 90.85546875 C52.31577151 77.42251977 50.2505182 61.52193446 49.66015625 46.75195312 C49.62277344 45.92501953 49.58539062 45.09808594 49.546875 44.24609375 C49.51658203 43.49352295 49.48628906 42.74095215 49.45507812 41.96557617 C49.44933696 40.17767626 49.44933696 40.17767626 48.265625 39.203125 C39.34773513 37.91619374 30.40011278 38.05111142 21.41015625 38.07275391 C18.7994185 38.07805636 16.18885713 38.07281477 13.578125 38.06640625 C-3.65561458 38.05590968 -20.36803224 38.93733986 -37.359375 41.890625 Z " fill="#0DA64F" transform="translate(921.734375,614.796875)"/>
<path d="M0 0 C1.10988281 0.43441406 2.21976563 0.86882813 3.36328125 1.31640625 C7.09962685 2.93270464 10.3016842 5.12524465 13.5 7.625 C14.34800171 8.28749756 14.34800171 8.28749756 15.21313477 8.96337891 C24.84282113 16.70758072 32.58696168 28.11883824 34.75390625 40.47265625 C36.59135551 59.34296848 32.50240022 73.60728638 21.125 88.4453125 C13.03378952 97.33866884 -0.29314617 104.47687614 -12.28320312 105.12304688 C-14.93968647 105.20663538 -17.59228088 105.23487784 -20.25 105.25 C-21.14074219 105.270625 -22.03148437 105.29125 -22.94921875 105.3125 C-36.3763639 105.3904515 -48.09354906 99.9730861 -57.8125 90.75 C-69.7469315 77.99399532 -74.57392451 63.64076983 -74.27734375 46.43359375 C-73.63795794 31.61956529 -65.59611244 18.91302972 -55 9 C-39.70351771 -2.6959945 -18.29036961 -7.75664889 0 0 Z " fill="#0DA64E" transform="translate(1204,528)"/>
<path d="M0 0 C11.23702214 7.77947686 20.29276181 19.32210331 23.65625 32.8203125 C25.96100612 49.08657204 23.53411738 64.54181643 14 78.2265625 C7.73187798 86.18808845 1.22414831 91.36386931 -7.9375 95.6875 C-8.61167969 96.01621094 -9.28585937 96.34492187 -9.98046875 96.68359375 C-20.77154884 101.66225984 -37.30963976 101.58969644 -48.5625 98.125 C-63.07140867 92.2346311 -74.37442382 81.99212619 -80.9375 67.6875 C-86.90068182 52.09544037 -86.18023511 37.00608484 -79.9375 21.6875 C-78.23513623 18.37868029 -76.29226158 15.56120192 -73.9375 12.6875 C-73.35226562 11.93082031 -72.76703125 11.17414063 -72.1640625 10.39453125 C-67.23384718 4.38771789 -61.77373867 0.33651217 -54.9375 -3.3125 C-53.99519531 -3.82167969 -53.05289063 -4.33085938 -52.08203125 -4.85546875 C-35.19868898 -12.65282087 -15.50641523 -9.24869636 0 0 Z " fill="#0DA64E" transform="translate(873.9375,1148.3125)"/>
<path d="M0 0 C8.33368118 6.90798969 14.09652999 14.92014994 16.25 25.6875 C17.32579437 38.99337772 13.74402355 49.02880194 5.796875 59.625 C-1.12235646 67.45281741 -11.93494747 72.03204398 -22.171875 72.890625 C-33.70485145 73.12283258 -43.59480591 69.18600937 -52.203125 61.49609375 C-60.44164258 52.99841751 -64.18216581 44.3940558 -64.3125 32.625 C-64.1154591 20.53898823 -60.37940182 11.3994255 -51.8671875 2.78125 C-37.50933213 -10.50680438 -15.72183947 -11.53801111 0 0 Z " fill="#0DA64F" transform="translate(851.75,848.3125)"/>
<path d="M0 0 C7.64209231 6.2339221 12.50262368 13.75787103 15.625 23.125 C16.12807848 31.7353817 16.54959207 40.23121822 12.625 48.125 C12.02171875 49.35283203 12.02171875 49.35283203 11.40625 50.60546875 C6.0863939 60.37331564 -1.92143778 67.25269476 -12.375 71.125 C-24.02116126 73.58679018 -35.26115257 72.97037178 -45.5859375 66.8046875 C-55.81133955 59.63515273 -60.48756019 50.78731942 -64.375 39.125 C-65.23692216 26.3784973 -63.63807085 16.12006824 -55.375 6.125 C-40.09250633 -10.09435152 -18.45270579 -12.97619386 0 0 Z " fill="#0DA64F" transform="translate(1354.375,832.875)"/>
<path d="M0 0 C8.33249785 6.71975633 15.18751649 15.4167766 16.8125 26.25 C17.8719574 39.18927486 15.10122937 49.50425289 7.06640625 59.7734375 C-0.53403728 68.12470474 -10.1517836 72.37156144 -21.33203125 73.59375 C-33.79862248 73.97782983 -43.13973861 69.85899025 -52.1953125 61.3671875 C-61.17449032 51.76607529 -63.58688558 41.73375601 -63.46484375 28.8515625 C-62.72170118 19.20117591 -58.15022318 9.89967571 -51.08203125 3.27734375 C-36.11617409 -8.85504648 -16.20337967 -11.27459498 0 0 Z " fill="#0DA64F" transform="translate(1222.1875,1042.75)"/>
<path d="M0 0 C0.64195313 0.41636719 1.28390625 0.83273437 1.9453125 1.26171875 C2.71101563 1.70902344 3.47671875 2.15632813 4.265625 2.6171875 C13.03809742 8.01674561 19.1884581 15.18453605 21.9453125 25.26171875 C23.53359271 37.27679052 22.19158134 48.48755979 15.1328125 58.57421875 C8.65708167 66.44793614 1.03813443 72.18438859 -9.36181641 73.56884766 C-21.75756822 74.62468318 -31.42238559 73.38038768 -41.37890625 65.3984375 C-48.8819959 58.47784279 -53.81562733 49.52297024 -54.390625 39.2109375 C-54.64933248 26.97350514 -52.66802343 17.48892272 -44.0546875 8.26171875 C-32.77419746 -2.3259197 -14.48901068 -8.09680009 0 0 Z " fill="#0DA64F" transform="translate(1071.0546875,1023.73828125)"/>
<path d="M0 0 C5.99710493 3.92118399 10.41615282 10.14350474 12.6484375 16.98828125 C14.38200637 26.90814759 12.32817271 34.9098535 6.875 43.25 C-0.83301091 50.62288 -8.32641019 53.4550089 -18.83203125 53.33984375 C-26.1870478 52.55083458 -32.50327496 48.53687036 -37.4609375 43.14453125 C-42.35371488 36.32693028 -45.33219822 28.39131755 -44 20 C-42.63501672 11.89630979 -37.94392857 6.46999406 -32 1 C-21.66356465 -5.8441857 -10.74660416 -5.65316156 0 0 Z " fill="#0FA750" transform="translate(1042,1224)"/>
<path d="M0 0 C5.58904824 4.9052817 9.58827988 10.47687759 10.27734375 18.046875 C10.55893338 27.82366684 8.81864545 34.51020289 2.734375 42.17578125 C-2.93431605 48.13812071 -10.21233662 50.97297847 -18.375 51.3125 C-26.18790756 51.07373542 -32.46708289 48.62634645 -38.13671875 43.1953125 C-44.4718609 35.73126661 -47.0018824 28.08063523 -46.5078125 18.328125 C-45.19569512 9.72870955 -40.97508898 4.053218 -34.3125 -1.37109375 C-23.29967345 -9.12843948 -10.80646643 -7.35526834 0 0 Z " fill="#0EA650" transform="translate(916,721)"/>
<path d="M0 0 C6.47487181 3.8389865 12.3215289 9.74452911 14.5 17.0625 C15.49780016 27.96868775 14.41736904 36.0712297 8.375 45.3125 C1.17741126 52.1971501 -7.33861907 54.50673116 -17.07421875 54.3984375 C-24.17820261 53.70180966 -29.45344626 50.50503203 -34.375 45.4375 C-39.82765009 38.56690308 -42.31953488 30.50604837 -41.9453125 21.76171875 C-40.4415464 12.64678563 -34.84839507 6.29350737 -27.8359375 0.74609375 C-20.22512105 -4.06514925 -8.00226067 -3.56757132 0 0 Z " fill="#0EA64F" transform="translate(1197.5,745.9375)"/>
<path d="M0 0 C2.46383902 1.20178081 4.68022467 2.4946815 6.9296875 4.05859375 C7.53425781 4.47753906 8.13882813 4.89648438 8.76171875 5.328125 C13.95922136 9.3116124 16.14038359 13.90368528 17.9296875 20.05859375 C18.90896354 30.30919752 17.87667238 37.70057368 11.4296875 45.74609375 C5.20605556 52.29847856 -1.61946658 55.27004023 -10.6328125 55.68359375 C-18.86829263 55.3221314 -24.93928675 52.29403279 -30.9453125 46.74609375 C-37.10735376 39.94308366 -38.66022345 34.38133737 -38.3203125 25.171875 C-37.69523085 17.38765512 -35.606116 11.71094048 -30.0703125 6.05859375 C-20.98718611 -0.97892098 -11.25236128 -3.45015149 0 0 Z " fill="#0EA64F" transform="translate(681.0703125,993.94140625)"/>
<path d="M0 0 C4.30582294 1.77783979 7.21867211 3.95009065 10 7.6875 C11.77995215 13.58359151 12.07756633 18.76197762 9.375 24.375 C6.02561758 28.07694899 3.48604424 30.63691157 -1.62109375 31.3828125 C-6.13393092 31.56651008 -9.29352255 31.32112611 -13.4375 29.4375 C-17.58727106 25.4901568 -20.18021188 21.78800818 -20.4375 15.9375 C-19.76531673 9.88785057 -17.96538348 6.5387134 -13.375 2.625 C-8.95044148 -0.44625948 -5.25980835 -1.21873608 0 0 Z " fill="#11A852" transform="translate(874,1020)"/>
<path d="M0 0 C4.9710149 2.53240382 8.49430567 5.98861134 11 11 C11.37364646 16.60469691 11.20860998 20.18708503 8 25 C4.01634367 28.93054092 0.87941985 31.15044094 -4.75 31.3125 C-9.61375935 31.26337112 -12.26914314 30.27587432 -16 27 C-19.92728894 22.66643979 -20.41875704 18.00756519 -20.34375 12.31640625 C-19.75409166 8.34291313 -17.8313917 5.76397761 -15 3 C-10.29440116 -0.31530827 -5.59869932 -0.90463723 0 0 Z " fill="#0FA750" transform="translate(1003,905)"/>
<path d="M0 0 C1.89213369 2.38573379 3.02391783 4.07175348 4 7 C6.31 7.33 8.62 7.66 11 8 C11.061875 8.61875 11.12375 9.2375 11.1875 9.875 C11.828919 12.27761141 11.828919 12.27761141 14.5625 13.25 C15.366875 13.4975 16.17125 13.745 17 14 C14.01179982 15.30826675 12.88805812 14.9589996 9.7578125 13.8125 C8.53845718 13.22550802 7.32769495 12.62041265 6.125 12 C5.18889893 11.52711548 5.18889893 11.52711548 4.23388672 11.04467773 C-0.76902639 8.39078148 -3.8014187 5.60972011 -7 1 C-5.5459375 1.0309375 -5.5459375 1.0309375 -4.0625 1.0625 C-1.12534105 1.35618499 -1.12534105 1.35618499 0 0 Z " fill="#18AA57" transform="translate(804,905)"/>
<path d="M0 0 C3.34079177 1.48395079 5.83006344 3.39445546 8.5625 5.8125 C9.70912109 6.81216797 9.70912109 6.81216797 10.87890625 7.83203125 C13.09798889 10.10015439 14.63091345 12.13736449 16 15 C15.67 15.99 15.34 16.98 15 18 C11.24 16.496 11.24 16.496 10.0625 14.0625 C8.6293766 11.28055457 6.71816847 10.43061498 4 9 C4.33 8.01 4.66 7.02 5 6 C4.01 6 3.02 6 2 6 C1.34 4.02 0.68 2.04 0 0 Z " fill="#13A852" transform="translate(1078,739)"/>
<path d="M0 0 C2.52662811 0.01774317 5.01423452 0.11587534 7.53125 0.33203125 C5.11287899 3.61410619 3.34889917 5.84054824 -0.46875 7.33203125 C-2.9765625 7.59765625 -2.9765625 7.59765625 -5.59375 7.58203125 C-6.89699219 7.58976563 -6.89699219 7.58976563 -8.2265625 7.59765625 C-10.46875 7.33203125 -10.46875 7.33203125 -12.46875 5.33203125 C-11.1075 5.48671875 -11.1075 5.48671875 -9.71875 5.64453125 C-8.64625 5.54140625 -7.57375 5.43828125 -6.46875 5.33203125 C-5.89125 4.50703125 -5.31375 3.68203125 -4.71875 2.83203125 C-2.46875 0.33203125 -2.46875 0.33203125 0 0 Z " fill="#19AB59" transform="translate(1003.46875,928.66796875)"/>
<path d="M0 0 C0.66 0 1.32 0 2 0 C2 1.32 2 2.64 2 4 C3.7465611 5.71931068 3.7465611 5.71931068 6 7.125 C7.36404088 8.03909684 8.70606001 8.98910938 10 10 C10 10.66 10 11.32 10 12 C10.66 12.33 11.32 12.66 12 13 C11.01 13.33 10.02 13.66 9 14 C4.36025202 10.98790554 0.42157972 6.99450818 -2 2 C-1.34 1.34 -0.68 0.68 0 0 Z " fill="#19AA59" transform="translate(802,1224)"/>
<path d="M0 0 C0 3 0 3 -2.5546875 5.70703125 C-4.20713921 7.27345944 -5.87904714 8.8162044 -7.55859375 10.35351562 C-11.03979913 13.66275785 -12.8615721 16.17969451 -14 21 C-15.32 20.01 -16.64 19.02 -18 18 C-12.06 12.06 -6.12 6.12 0 0 Z " fill="#E4F4E9" transform="translate(700,747)"/>
<path d="M0 0 C0.33 0.99 0.66 1.98 1 3 C-2.96 4.98 -2.96 4.98 -7 7 C-7.66 6.34 -8.32 5.68 -9 5 C-8.75 2.4375 -8.75 2.4375 -8 0 C-5.13822943 -1.43088528 -3.06624227 -0.59991697 0 0 Z " fill="#F4FAF7" transform="translate(811,841)"/>
<path d="M0 0 C-0.25 3.375 -0.25 3.375 -1 7 C-2.75 8.5 -2.75 8.5 -5 9 C-7.75 8.625 -7.75 8.625 -10 8 C-8.33333333 6.33333333 -6.66666667 4.66666667 -5 3 C-4.443125 2.401875 -3.88625 1.80375 -3.3125 1.1875 C-2 0 -2 0 0 0 Z " fill="#19A957" transform="translate(1174,1269)"/>
<path d="M0 0 C1.4606285 2.64738916 2 3.89448334 2 7 C1.195625 7.268125 0.39125 7.53625 -0.4375 7.8125 C-1.283125 8.204375 -2.12875 8.59625 -3 9 C-3.33 9.99 -3.66 10.98 -4 12 C-4.99 12.33 -5.98 12.66 -7 13 C-5.35821735 8.22390502 -2.73453298 4.20617096 0 0 Z " fill="#E8F6EE" transform="translate(646,811)"/>
<path d="M0 0 C0 3.59947819 -0.83412607 4.25100617 -3 7 C-3.69580267 8.31836295 -4.37224433 9.64791086 -5 11 C-5.99 11 -6.98 11 -8 11 C-8 10.34 -8 9.68 -8 9 C-8.66 9 -9.32 9 -10 9 C-10 9.66 -10 10.32 -10 11 C-11.65 11 -13.3 11 -15 11 C-11.45160517 8.28604505 -7.76244976 5.84326039 -4.0234375 3.40234375 C-1.90268525 2.02161308 -1.90268525 2.02161308 0 0 Z " fill="#DDF1E4" transform="translate(1359,892)"/>
<path d="M0 0 C1.31611677 0.95336021 2.62778961 1.91285774 3.9375 2.875 C4.66839844 3.40867187 5.39929687 3.94234375 6.15234375 4.4921875 C8 6 8 6 9 8 C7.02 8.99 7.02 8.99 5 10 C2.5 8.375 2.5 8.375 0 6 C-0.3125 2.75 -0.3125 2.75 0 0 Z " fill="#1BAB5A" transform="translate(1243,925)"/>
<path d="M0 0 C0.99 1.32 1.98 2.64 3 4 C2.34 4.66 1.68 5.32 1 6 C0.3574765 8.06874034 0.3574765 8.06874034 0 10 C-1.65 9.67 -3.3 9.34 -5 9 C-3.90931332 5.22454612 -3.0916909 2.52956528 0 0 Z " fill="#1DAC5B" transform="translate(877,724)"/>
<path d="M0 0 C1.20272819 2.40545638 1.10071472 3.94996953 1.0625 6.625 C1.05347656 7.44226563 1.04445313 8.25953125 1.03515625 9.1015625 C1.02355469 9.72804688 1.01195312 10.35453125 1 11 C0.71125 10.360625 0.4225 9.72125 0.125 9.0625 C-0.82823451 6.84793921 -0.82823451 6.84793921 -3 6 C-3 6.99 -3 7.98 -3 9 C-5.5 10.6875 -5.5 10.6875 -8 12 C-6.49087042 7.01987239 -3.44338151 3.75740058 0 0 Z " fill="#22AE61" transform="translate(1302,836)"/>
<path d="M0 0 C2 2 2 2 2 4.4375 C1 7 1 7 -1.9375 8.875 C-2.948125 9.24625 -3.95875 9.6175 -5 10 C-5.66 9.67 -6.32 9.34 -7 9 C-4.69 6.03 -2.38 3.06 0 0 Z " fill="#1DAB5C" transform="translate(642,752)"/>
<path d="M0 0 C1.32 0.33 2.64 0.66 4 1 C1.03 4.96 1.03 4.96 -2 9 C-2.66 8.67 -3.32 8.34 -4 8 C-3.63287028 5.28324005 -3.27255401 3.38936287 -1.6875 1.125 C-1.130625 0.75375 -0.57375 0.3825 0 0 Z " fill="#18AA57" transform="translate(1205,785)"/>
<path d="M0 0 C2 1 2 1 5 3 C5.6875 6.125 5.6875 6.125 6 9 C2.56247993 7.4722133 -0.18953688 5.49818944 -3 3 C-3 2.34 -3 1.68 -3 1 C-2.01 0.67 -1.02 0.34 0 0 Z " fill="#19AC5A" transform="translate(698,1306)"/>
<path d="M0 0 C0.33 0.66 0.66 1.32 1 2 C3.02463255 2.65213292 3.02463255 2.65213292 5 3 C4.34 4.32 3.68 5.64 3 7 C2.01 7 1.02 7 0 7 C-0.66 6.34 -1.32 5.68 -2 5 C-3.98 5.99 -3.98 5.99 -6 7 C-4.02 4.69 -2.04 2.38 0 0 Z " fill="#EAF7F0" transform="translate(883,1231)"/>
<path d="M0 0 C0.66 0 1.32 0 2 0 C2.6875 2.25 2.6875 2.25 3 5 C1.5625 7.3125 1.5625 7.3125 0 9 C-1.32 8.34 -2.64 7.68 -4 7 C-2.79618552 4.50638429 -1.54571278 2.31856917 0 0 Z " fill="#18AA58" transform="translate(1228,1207)"/>
<path d="M0 0 C1.1875 2.5625 1.1875 2.5625 2 5 C-1 6 -1 6 -3.04296875 5.00390625 C-3.75066406 4.52824219 -4.45835938 4.05257812 -5.1875 3.5625 C-5.90292969 3.08941406 -6.61835937 2.61632812 -7.35546875 2.12890625 C-7.89816406 1.75636719 -8.44085937 1.38382813 -9 1 C-5.55424754 -0.72287623 -3.7311644 -1.24372147 0 0 Z " fill="#E4F3EA" transform="translate(1051,722)"/>
<path d="M0 0 C0.598125 0.226875 1.19625 0.45375 1.8125 0.6875 C1.8125 1.3475 1.8125 2.0075 1.8125 2.6875 C0.8225 2.6875 -0.1675 2.6875 -1.1875 2.6875 C-1.5175 4.6675 -1.8475 6.6475 -2.1875 8.6875 C-4.6625 7.6975 -4.6625 7.6975 -7.1875 6.6875 C-3.9375 -0.5625 -3.9375 -0.5625 0 0 Z " fill="#16A856" transform="translate(1201.1875,1243.3125)"/>
<path d="M0 0 C-1.07401108 2.91517292 -1.77810176 4.77810176 -4 7 C-6.0625 6.75 -6.0625 6.75 -8 6 C-8.33 5.34 -8.66 4.68 -9 4 C-4.5 0 -4.5 0 0 0 Z " fill="#16AA57" transform="translate(1180,1042)"/>
<path d="M0 0 C1.06700419 3.98109128 1.52281995 7.90988529 2 12 C1.01 12.495 1.01 12.495 0 13 C-0.66 12.67 -1.32 12.34 -2 12 C-2.33 12.99 -2.66 13.98 -3 15 C-2.35812082 9.86496656 -1.31727753 5.0056546 0 0 Z " fill="#2DB267" transform="translate(564,898)"/>
<path d="M0 0 C5.57142857 5.14285714 5.57142857 5.14285714 6 9 C4.68 9 3.36 9 2 9 C1.690625 8.21625 1.38125 7.4325 1.0625 6.625 C0.07124962 4.07669872 0.07124962 4.07669872 -1 2 C-0.67 1.34 -0.34 0.68 0 0 Z " fill="#1FAD5D" transform="translate(1088,747)"/>
<path d="M0 0 C3.47184701 5.20777052 3.13923989 10.78303353 3.0625 16.875 C3.05798828 17.56335938 3.05347656 18.25171875 3.04882812 18.9609375 C3.03716336 20.64066335 3.01923271 22.32034375 3 24 C2.67 24 2.34 24 2 24 C2 19.38 2 14.76 2 10 C0.68 9.67 -0.64 9.34 -2 9 C-1.505 7.88625 -1.505 7.88625 -1 6.75 C0.22782871 3.86116688 0.22782871 3.86116688 0 0 Z " fill="#49BB7C" transform="translate(1236,562)"/>
<path d="M0 0 C2 0.3125 2 0.3125 4 1 C4.33 1.66 4.66 2.32 5 3 C4.0625 5.625 4.0625 5.625 3 8 C1.02 6.35 -0.96 4.7 -3 3 C-2 2 -1 1 0 0 Z " fill="#E6F5EB" transform="translate(691,1248)"/>
<path d="M0 0 C0.33 1.32 0.66 2.64 1 4 C0.01 4.495 0.01 4.495 -1 5 C-1.65772428 8.02934491 -1.65772428 8.02934491 -2 11 C-3.32 10.67 -4.64 10.34 -6 10 C-4.6302836 6.00499382 -2.74277578 3.19990508 0 0 Z " fill="#26AE61" transform="translate(1170,1047)"/>
<path d="M0 0 C0.33 0.66 0.66 1.32 1 2 C1.66 2.33 2.32 2.66 3 3 C2.56816406 3.42023438 2.13632812 3.84046875 1.69140625 4.2734375 C-0.54826282 6.55965858 -2.55596053 9.01405927 -4.59765625 11.4765625 C-6 13 -6 13 -8 14 C-8.66 13.34 -9.32 12.68 -10 12 C-9.0925 11.319375 -8.185 10.63875 -7.25 9.9375 C-3.77393779 7.07098424 -2.03435118 3.99045809 0 0 Z " fill="#DDF1E4" transform="translate(696,1032)"/>
<path d="M0 0 C1.5625 1.25 1.5625 1.25 3 3 C2.87222063 6.83338123 0.4113092 9.19976996 -2 12 C-2.05422947 10.5629191 -2.09289723 9.12524538 -2.125 7.6875 C-2.14820313 6.88699219 -2.17140625 6.08648438 -2.1953125 5.26171875 C-2 3 -2 3 0 0 Z " fill="#21AD5E" transform="translate(985,912)"/>
<path d="M0 0 C1.32 0.33 2.64 0.66 4 1 C4 1.99 4 2.98 4 4 C6.475 4.99 6.475 4.99 9 6 C6.83032311 6.95465783 5.43671207 7.14401212 3.17578125 6.3984375 C1.4315257 5.64129615 -0.28627131 4.82390802 -2 4 C-2 3.34 -2 2.68 -2 2 C-1.34 2 -0.68 2 0 2 C0 1.34 0 0.68 0 0 Z " fill="#25AF62" transform="translate(812,913)"/>
<path d="M0 0 C0 3.93631364 -1.42857129 5.12605026 -4 8 C-6.46278801 9.231394 -8.2795055 9.07159196 -11 9 C-7.67149253 5.40521193 -4.01028669 2.77635232 0 0 Z " fill="#EAF7EF" transform="translate(1173,1318)"/>
<path d="M0 0 C0.66 0.33 1.32 0.66 2 1 C1.01 2.98 0.02 4.96 -1 7 C-5 7 -5 7 -8 5 C-6.71475739 4.13619741 -5.42157581 3.28419631 -4.125 2.4375 C-3.04605469 1.72400391 -3.04605469 1.72400391 -1.9453125 0.99609375 C-1.30335938 0.66738281 -0.66140625 0.33867188 0 0 Z " fill="#E5F4EB" transform="translate(760,702)"/>
<path d="M0 0 C-1.14453125 1.984375 -1.14453125 1.984375 -3 4 C-5.69921875 4.390625 -5.69921875 4.390625 -8.6875 4.25 C-9.68136719 4.21390625 -10.67523437 4.1778125 -11.69921875 4.140625 C-12.45847656 4.09421875 -13.21773437 4.0478125 -14 4 C-11.37350692 2.24900461 -9.38191413 1.30690675 -6.4375 0.3125 C-5.65246094 0.04050781 -4.86742187 -0.23148438 -4.05859375 -0.51171875 C-2 -1 -2 -1 0 0 Z " fill="#38B571" transform="translate(1062,1336)"/>
<path d="M0 0 C2.475 0.99 2.475 0.99 5 2 C3.35 4.31 1.7 6.62 0 9 C-0.99 8.01 -1.98 7.02 -3 6 C-2 4 -2 4 0 2 C0 1.34 0 0.68 0 0 Z " fill="#18A956" transform="translate(1243,1243)"/>
<path d="M0 0 C1.17539996 0.92652701 2.34010577 1.86663387 3.5 2.8125 C4.1496875 3.33457031 4.799375 3.85664062 5.46875 4.39453125 C7 6 7 6 7 9 C3.15314615 7.75237172 0.97070595 6.6129609 -1 3 C-0.67 2.01 -0.34 1.02 0 0 Z " fill="#1EAC5D" transform="translate(1116,857)"/>
<path d="M0 0 C2.11386464 2.11386464 2.97008322 3.79267603 4.1875 6.5 C4.55230469 7.2940625 4.91710938 8.088125 5.29296875 8.90625 C5.52628906 9.5971875 5.75960938 10.288125 6 11 C5.67 11.66 5.34 12.32 5 13 C2.32098068 10.68118495 1.33795597 8.68185532 0.3125 5.3125 C0.06113281 4.50425781 -0.19023438 3.69601562 -0.44921875 2.86328125 C-0.63097656 2.24839844 -0.81273437 1.63351562 -1 1 C-0.67 0.67 -0.34 0.34 0 0 Z " fill="#2EB368" transform="translate(1098,827)"/>
<path d="M0 0 C0.33 0.66 0.66 1.32 1 2 C-3.30769231 6.92307692 -3.30769231 6.92307692 -6.8125 7.3125 C-7.8953125 7.1578125 -7.8953125 7.1578125 -9 7 C-6.24479785 4.04070881 -3.53372712 1.96318174 0 0 Z " fill="#1DAB5B" transform="translate(729,676)"/>
<path d="M0 0 C1.54571278 2.31856917 2.79618552 4.50638429 4 7 C2.1875 7.625 2.1875 7.625 0 8 C-0.99 7.34 -1.98 6.68 -3 6 C-1.125 1.125 -1.125 1.125 0 0 Z " fill="#F1F9F5" transform="translate(1050,1264)"/>
<path d="M0 0 C2.625 0.625 2.625 0.625 5 2 C5.8125 4.125 5.8125 4.125 6 6 C2.17902761 5.46930939 -0.06171403 4.50298434 -3 2 C-2.01 1.34 -1.02 0.68 0 0 Z " fill="#28B064" transform="translate(1125,906)"/>
<path d="M0 0 C-2.85306797 2.32472205 -5.54074837 3.7508258 -9 5 C-9.33 3.68 -9.66 2.36 -10 1 C-3.71428571 -1.42857143 -3.71428571 -1.42857143 0 0 Z " fill="#F0F8F3" transform="translate(758,659)"/>
<path d="M0 0 C2.4375 0.8125 2.4375 0.8125 5 2 C5.33 2.99 5.66 3.98 6 5 C4.3125 5.6875 4.3125 5.6875 2 6 C-0.75 4.5625 -0.75 4.5625 -3 3 C-2.01 2.01 -1.02 1.02 0 0 Z " fill="#1DAB5A" transform="translate(1159,623)"/>
<path d="M0 0 C0.33 0 0.66 0 1 0 C1.38063221 2.3260857 1.71269945 4.66055264 2 7 C1.67 7.33 1.34 7.66 1 8 C0.76472227 10.34987262 0.58613583 12.70556039 0.4375 15.0625 C0.35371094 16.35285156 0.26992187 17.64320313 0.18359375 18.97265625 C0.12300781 19.97167969 0.06242187 20.97070312 0 22 C-0.33 22 -0.66 22 -1 22 C-1.0270817 19.27076612 -1.04687847 16.54180363 -1.0625 13.8125 C-1.07087891 13.04357422 -1.07925781 12.27464844 -1.08789062 11.48242188 C-1.10491934 7.51473211 -0.98604115 3.87428766 0 0 Z " fill="#45BB7A" transform="translate(1131,565)"/>
<path d="M0 0 C1.9375 0.8125 1.9375 0.8125 4 2 C4.33 2.99 4.66 3.98 5 5 C4.67 5.66 4.34 6.32 4 7 C1.525 6.01 1.525 6.01 -1 5 C-1 2 -1 2 0 0 Z " fill="#1AAC5A" transform="translate(718,1321)"/>
<path d="M0 0 C0.78375 0.04125 1.5675 0.0825 2.375 0.125 C2.705 1.115 3.035 2.105 3.375 3.125 C2.715 3.125 2.055 3.125 1.375 3.125 C1.705 4.115 2.035 5.105 2.375 6.125 C-0.54017292 5.05098892 -2.40310176 4.34689824 -4.625 2.125 C-2.625 0.125 -2.625 0.125 0 0 Z " fill="#E7F5ED" transform="translate(753.625,1297.875)"/>
<path d="M0 0 C0.33 0.66 0.66 1.32 1 2 C-0.10281127 3.27200971 -1.20730769 4.54255853 -2.3125 5.8125 C-2.92738281 6.52019531 -3.54226563 7.22789063 -4.17578125 7.95703125 C-5.73334335 9.70136739 -7.32658875 11.36778041 -9 13 C-9.66 12.67 -10.32 12.34 -11 12 C-10.54109375 11.55269531 -10.0821875 11.10539062 -9.609375 10.64453125 C-6.16447701 7.25029352 -2.92744915 3.86423288 0 0 Z " fill="#DBF3E5" transform="translate(1227,1269)"/>
<path d="M0 0 C-0.49831724 3.68754757 -1.10067643 5.60490662 -4 8 C-4 7.01 -4 6.02 -4 5 C-4.99 5.33 -5.98 5.66 -7 6 C-7 4 -7 4 -5.1875 1.875 C-3 0 -3 0 0 0 Z " fill="#17AA57" transform="translate(1288,1181)"/>
<path d="M0 0 C0.66 0.33 1.32 0.66 2 1 C-3.30311615 6.74504249 -3.30311615 6.74504249 -7 7 C-7.66 6.67 -8.32 6.34 -9 6 C-6.03 4.02 -3.06 2.04 0 0 Z " fill="#2AB065" transform="translate(1313,828)"/>
<path d="M0 0 C1.32 0.66 2.64 1.32 4 2 C4 2.66 4 3.32 4 4 C3.01 4.33 2.02 4.66 1 5 C-0.22520264 8.00847418 -0.22520264 8.00847418 -1 11 C-1.33 11 -1.66 11 -2 11 C-3.35384615 4.6 -3.35384615 4.6 -1.5625 1.5625 C-1.046875 1.046875 -0.53125 0.53125 0 0 Z " fill="#14AA56" transform="translate(979,688)"/>
<path d="M0 0 C0.99 0.33 1.98 0.66 3 1 C0.525 4.465 0.525 4.465 -2 8 C-2.99 7.34 -3.98 6.68 -5 6 C-4.34 6 -3.68 6 -3 6 C-3.33 5.01 -3.66 4.02 -4 3 C-2.1875 1.4375 -2.1875 1.4375 0 0 Z " fill="#F0F7F3" transform="translate(1142,540)"/>
<path d="M0 0 C0.33 0.66 0.66 1.32 1 2 C1.99 2.33 2.98 2.66 4 3 C1.36 4.65 -1.28 6.3 -4 8 C-4 4.09161134 -2.49432124 2.88405893 0 0 Z " fill="#17A957" transform="translate(1150,1329)"/>
<path d="M0 0 C1.15227823 0.76116551 2.2966386 1.53432693 3.4375 2.3125 C4.07558594 2.74175781 4.71367188 3.17101563 5.37109375 3.61328125 C7 5 7 5 8 8 C7.01 8.495 7.01 8.495 6 9 C4 6 4 6 3 4 C2.34 4 1.68 4 1 4 C0.67 4.99 0.34 5.98 0 7 C-1.04449911 3.86650268 -0.93423645 3.01031744 0 0 Z " fill="#1CAC5C" transform="translate(689,1252)"/>
<path d="M0 0 C0.66 0.66 1.32 1.32 2 2 C2.66 2.33 3.32 2.66 4 3 C4.33 2.34 4.66 1.68 5 1 C5.33 1.99 5.66 2.98 6 4 C4.5625 6.1875 4.5625 6.1875 3 8 C0.9375 5.6875 0.9375 5.6875 -1 3 C-0.67 2.01 -0.34 1.02 0 0 Z " fill="#20AC5D" transform="translate(633,1242)"/>
<path d="M0 0 C1.32 1.32 2.64 2.64 4 4 C3.34 5.32 2.68 6.64 2 8 C1.34 8 0.68 8 0 8 C-1.625 6 -1.625 6 -3 4 C-2.34 3.67 -1.68 3.34 -1 3 C-0.67 2.01 -0.34 1.02 0 0 Z " fill="#E8F6ED" transform="translate(1164,1096)"/>
<path d="M0 0 C3.24208567 0.35049575 4.61527704 0.56221181 6.8125 3.0625 C7.204375 3.701875 7.59625 4.34125 8 5 C5.37886292 5 3.49064888 4.68707555 1 4 C0.67 2.68 0.34 1.36 0 0 Z " fill="#18AA58" transform="translate(1219,1043)"/>
<path d="M0 0 C0.99 0.66 1.98 1.32 3 2 C2.34 3.65 1.68 5.3 1 7 C-0.98 5.68 -2.96 4.36 -5 3 C-2 1 -2 1 0 0 Z " fill="#EEF7F1" transform="translate(1309,1010)"/>
<path d="M0 0 C1.32 0.99 2.64 1.98 4 3 C1.34159726 4.42414432 -1.08791694 5.27197924 -4 6 C-5.3479743 6.63654342 -6.68596724 7.29605388 -8 8 C-5.58443874 4.80800833 -3.31996462 2.25283313 0 0 Z " fill="#26AD61" transform="translate(670,723)"/>
<path d="M0 0 C5.57142857 5.14285714 5.57142857 5.14285714 6 9 C4.68 9 3.36 9 2 9 C1.34 6.03 0.68 3.06 0 0 Z " fill="#24AE61" transform="translate(657,1214)"/>
<path d="M0 0 C2.64 0 5.28 0 8 0 C8 0.66 8 1.32 8 2 C8.99 2.33 9.98 2.66 11 3 C11.33 4.32 11.66 5.64 12 7 C8.04 5.02 4.08 3.04 0 1 C0 0.67 0 0.34 0 0 Z " fill="#D1EDDB" transform="translate(678,993)"/>
<path d="M0 0 C-4.625 4.875 -4.625 4.875 -8 6 C-6.53781513 1.3697479 -6.53781513 1.3697479 -4 -0.375 C-2 -1 -2 -1 0 0 Z " fill="#20AC5C" transform="translate(624,782)"/>
<path d="M0 0 C0.99 0.33 1.98 0.66 3 1 C1.75023244 4.65316671 1.32901247 5.78065836 -2 8 C-2.6875 6.25 -2.6875 6.25 -3 4 C-1.5625 1.75 -1.5625 1.75 0 0 Z " fill="#ECF7F0" transform="translate(1229,1200)"/>
<path d="M0 0 C3.875 4.75 3.875 4.75 5 7 C4.21625 6.649375 3.4325 6.29875 2.625 5.9375 C1.75875 5.628125 0.8925 5.31875 0 5 C-0.99 5.495 -0.99 5.495 -2 6 C-2.33 4.68 -2.66 3.36 -3 2 C-2.01 2 -1.02 2 0 2 C0 1.34 0 0.68 0 0 Z " fill="#20AD5F" transform="translate(886,1160)"/>
<path d="M0 0 C0.66 0.99 1.32 1.98 2 3 C-0.48952921 5.66735273 -2.63408134 7.55746343 -6 9 C-4.16172132 5.84866512 -2.24027294 2.88035092 0 0 Z " fill="#2CAF66" transform="translate(803,1157)"/>
<path d="M0 0 C0.66 0 1.32 0 2 0 C2.25 2.8125 2.25 2.8125 2 6 C0 7.875 0 7.875 -2 9 C-3 6 -3 6 -1.5625 2.8125 C-1.046875 1.884375 -0.53125 0.95625 0 0 Z " fill="#25AF61" transform="translate(1261,1149)"/>
<path d="M0 0 C1.65 0 3.3 0 5 0 C5.33 0.99 5.66 1.98 6 3 C8.01508358 3.73323796 8.01508358 3.73323796 10 4 C10 4.66 10 5.32 10 6 C5.56909529 4.79157144 3.01887244 3.48331435 0 0 Z " fill="#25AF64" transform="translate(653,1042)"/>
<path d="M0 0 C2.50298434 2.93828597 3.46930939 5.17902761 4 9 C3.01 9 2.02 9 1 9 C1 8.01 1 7.02 1 6 C0.01 5.67 -0.98 5.34 -2 5 C-1.34 4.67 -0.68 4.34 0 4 C0 2.68 0 1.36 0 0 Z " fill="#D9F0E2" transform="translate(1244,994)"/>
<path d="M0 0 C1.0625 1.875 1.0625 1.875 2 4 C1.67 4.66 1.34 5.32 1 6 C0.34 6 -0.32 6 -1 6 C-0.67 6.99 -0.34 7.98 0 9 C-0.66 9 -1.32 9 -2 9 C-2 8.34 -2 7.68 -2 7 C-2.66 6.67 -3.32 6.34 -4 6 C-2.68 4.02 -1.36 2.04 0 0 Z " fill="#ECF9F1" transform="translate(660,791)"/>
<path d="M0 0 C0.66 0.33 1.32 0.66 2 1 C0.94901234 3.86632997 0.33137046 4.83006643 -2.4375 6.25 C-5 7 -5 7 -8 7 C-5.36 4.69 -2.72 2.38 0 0 Z " fill="#2EB36B" transform="translate(812,1149)"/>
<path d="M0 0 C0.66 0 1.32 0 2 0 C3.20628008 2.33214148 4.1654738 4.49642139 5 7 C1.62496331 5.8141763 -0.64722731 4.72426311 -3 2 C-2.01 2 -1.02 2 0 2 C0 1.34 0 0.68 0 0 Z " fill="#27B065" transform="translate(1179,1106)"/>
<path d="M0 0 C0.99 0 1.98 0 3 0 C3 0.99 3 1.98 3 3 C2.34 3 1.68 3 1 3 C1.33 4.65 1.66 6.3 2 8 C0.68 7.01 -0.64 6.02 -2 5 C-1.34 3.35 -0.68 1.7 0 0 Z " fill="#E3F4EB" transform="translate(1299,1002)"/>
<path d="M0 0 C5.50366792 -0.32374517 9.43672206 -0.53286034 14 3 C12.02 3.99 12.02 3.99 10 5 C10 4.01 10 3.02 10 2 C6.7 1.67 3.4 1.34 0 1 C0 0.67 0 0.34 0 0 Z " fill="#34B46E" transform="translate(994,905)"/>
<path d="M0 0 C0.66 0.66 1.32 1.32 2 2 C0.35 3.32 -1.3 4.64 -3 6 C-3.66 5.67 -4.32 5.34 -5 5 C-4.67 3.68 -4.34 2.36 -4 1 C-2.125 0.375 -2.125 0.375 0 0 Z " fill="#E0F3E9" transform="translate(670,720)"/>
<path d="M0 0 C0.99 0.33 1.98 0.66 3 1 C0.75 3.5625 0.75 3.5625 -2 6 C-4.3125 5.8125 -4.3125 5.8125 -6 5 C-1.60546875 0.99609375 -1.60546875 0.99609375 0 0 Z " fill="#26AD60" transform="translate(704,693)"/>
<path d="M0 0 C-3.78756477 3.61139896 -3.78756477 3.61139896 -6 5 C-8.875 4.8125 -8.875 4.8125 -11 4 C-3.77464789 -1.88732394 -3.77464789 -1.88732394 0 0 Z " fill="#32B46D" transform="translate(789,646)"/>
<path d="M0 0 C0.33 0 0.66 0 1 0 C1.25 7.625 1.25 7.625 -1 11 C-1.33 8.03 -1.66 5.06 -2 2 C-1.34 2 -0.68 2 0 2 C0 1.34 0 0.68 0 0 Z " fill="#1BAD5B" transform="translate(1133,585)"/>
<path d="M0 0 C0 0.99 0 1.98 0 3 C-1.65 3 -3.3 3 -5 3 C-5 2.34 -5 1.68 -5 1 C-5.99 0.67 -6.98 0.34 -8 0 C-4.71023192 -1.09658936 -3.28696233 -0.79953138 0 0 Z " fill="#DDF3E7" transform="translate(1064,1377)"/>
<path d="M0 0 C0.66 0.33 1.32 0.66 2 1 C-2.29290618 5.75286041 -2.29290618 5.75286041 -6 6 C-6.66 5.34 -7.32 4.68 -8 4 C-6.71349294 3.30289269 -5.42059335 2.61757124 -4.125 1.9375 C-3.40570312 1.55464844 -2.68640625 1.17179687 -1.9453125 0.77734375 C-1.30335937 0.52082031 -0.66140625 0.26429687 0 0 Z " fill="#DFF2E7" transform="translate(1118,1352)"/>
<path d="M0 0 C0.66 0.33 1.32 0.66 2 1 C2.1875 3.375 2.1875 3.375 2 6 C1.01 6.66 0.02 7.32 -1 8 C-1.625 5.125 -1.625 5.125 -2 2 C-1.34 1.34 -0.68 0.68 0 0 Z " fill="#EDF8F3" transform="translate(1230,1266)"/>
<path d="M0 0 C1.2077558 3.62326739 0.54311128 4.64146369 -1 8 C-2.65 8 -4.3 8 -6 8 C-4.02 5.36 -2.04 2.72 0 0 Z " fill="#2FB369" transform="translate(1209,1231)"/>
<path d="M0 0 C1.61949011 2.57213134 2.04408751 3.67669159 1.625 6.75 C1.41875 7.4925 1.2125 8.235 1 9 C0.01 8.34 -0.98 7.68 -2 7 C-2 5.68 -2 4.36 -2 3 C-1.34 3 -0.68 3 0 3 C0 2.01 0 1.02 0 0 Z " fill="#1AAA58" transform="translate(894,1174)"/>
<path d="M0 0 C0.66 0.99 1.32 1.98 2 3 C1.390625 5.2265625 1.390625 5.2265625 0.25 7.625 C-0.11609375 8.42164063 -0.4821875 9.21828125 -0.859375 10.0390625 C-2 12 -2 12 -4 13 C-3.52140759 11.39566191 -3.04210442 9.79153584 -2.5625 8.1875 C-2.29566406 7.29417969 -2.02882813 6.40085937 -1.75390625 5.48046875 C-1.19612127 3.64526945 -0.60655425 1.81966274 0 0 Z " fill="#41B977" transform="translate(1273,1118)"/>
<path d="M0 0 C3.65316671 1.24976756 4.78065836 1.67098753 7 5 C6.67 5.99 6.34 6.98 6 8 C4.9970458 6.85675161 3.99770973 5.71032809 3 4.5625 C2.443125 3.92441406 1.88625 3.28632812 1.3125 2.62890625 C0 1 0 1 0 0 Z " fill="#16AA59" transform="translate(646,1034)"/>
<path d="M0 0 C0.33 0.66 0.66 1.32 1 2 C0.360625 2.12375 -0.27875 2.2475 -0.9375 2.375 C-1.618125 2.58125 -2.29875 2.7875 -3 3 C-3.33 3.66 -3.66 4.32 -4 5 C-4.99 3.68 -5.98 2.36 -7 1 C-4.53721199 -0.231394 -2.7204945 -0.07159196 0 0 Z " fill="#15A956" transform="translate(1278,1033)"/>
<path d="M0 0 C1.32 0.66 2.64 1.32 4 2 C2.88820837 5.33537489 1.52588702 6.63707344 -1 9 C-1.09765625 2.84765625 -1.09765625 2.84765625 -1 1 C-0.67 0.67 -0.34 0.34 0 0 Z " fill="#18AB58" transform="translate(1314,1021)"/>
<path d="M0 0 C2.4375 0.375 2.4375 0.375 5 1 C5.33 1.66 5.66 2.32 6 3 C5.34 3 4.68 3 4 3 C3.67 3.99 3.34 4.98 3 6 C1.5 4.6875 1.5 4.6875 0 3 C0 2.01 0 1.02 0 0 Z " fill="#18AB59" transform="translate(1098,890)"/>
<path d="M0 0 C1 3 1 3 -0.1875 6 C-1.91646162 8.86172959 -3.19955455 10.26179248 -6 12 C-4.43358249 7.69235185 -2.31663844 3.93828536 0 0 Z " fill="#DDF2E4" transform="translate(636,827)"/>
<path d="M0 0 C0.99 0.33 1.98 0.66 3 1 C1.35 3.64 -0.3 6.28 -2 9 C-3 5 -3 5 -1.5625 2.25 C-1.046875 1.5075 -0.53125 0.765 0 0 Z " fill="#20AD5E" transform="translate(639,818)"/>
<path d="M0 0 C1.0326802 2.78823655 1.04509293 3.8677274 0.0625 6.75 C-0.288125 7.4925 -0.63875 8.235 -1 9 C-3 6 -3 6 -2.625 3.8125 C-2.41875 3.214375 -2.2125 2.61625 -2 2 C-1.34 2 -0.68 2 0 2 C0 1.34 0 0.68 0 0 Z " fill="#F4F9F5" transform="translate(1214,757)"/>
<path d="M0 0 C3.465 1.98 3.465 1.98 7 4 C6.01 4.66 5.02 5.32 4 6 C3.01 5.67 2.02 5.34 1 5 C0.01 5 -0.98 5 -2 5 C-1.34 3.35 -0.68 1.7 0 0 Z " fill="#EBF6EF" transform="translate(1020,754)"/>
<path d="M0 0 C0.66 1.32 1.32 2.64 2 4 C0.75 5.5625 0.75 5.5625 -1 7 C-3.1875 6.6875 -3.1875 6.6875 -5 6 C-3.35 4.02 -1.7 2.04 0 0 Z " fill="#23AF60" transform="translate(656,736)"/>
<path d="M0 0 C0 3 0 3 -1.53125 4.60546875 C-2.1809375 5.12753906 -2.830625 5.64960937 -3.5 6.1875 C-4.1496875 6.71730469 -4.799375 7.24710938 -5.46875 7.79296875 C-5.9740625 8.19128906 -6.479375 8.58960938 -7 9 C-7.66 8.67 -8.32 8.34 -9 8 C-6.03 5.36 -3.06 2.72 0 0 Z " fill="#D1EFDC" transform="translate(1211,1286)"/>
<path d="M0 0 C0.99 0.33 1.98 0.66 3 1 C3.6875 3.0625 3.6875 3.0625 4 5 C2.35 5 0.7 5 -1 5 C-1 1 -1 1 0 0 Z " fill="#1AAB5A" transform="translate(642,1194)"/>
<path d="M0 0 C1.65 0 3.3 0 5 0 C5.33 0.99 5.66 1.98 6 3 C4.68 3.99 3.36 4.98 2 6 C1.34 4.02 0.68 2.04 0 0 Z " fill="#15A955" transform="translate(599,1193)"/>
<path d="M0 0 C2.475 0.495 2.475 0.495 5 1 C5 2.32 5 3.64 5 5 C5.66 5.33 6.32 5.66 7 6 C6.67 6.66 6.34 7.32 6 8 C1.125 3.375 1.125 3.375 0 0 Z " fill="#30B36A" transform="translate(855,1041)"/>
<path d="M0 0 C-0.33 0.66 -0.66 1.32 -1 2 C-5.29 1.67 -9.58 1.34 -14 1 C-14 0.67 -14 0.34 -14 0 C-12.41773035 -0.19627391 -10.83410729 -0.38165538 -9.25 -0.5625 C-8.36828125 -0.66691406 -7.4865625 -0.77132812 -6.578125 -0.87890625 C-4.11567549 -0.99456676 -2.33461936 -0.73638695 0 0 Z " fill="#DBF1E5" transform="translate(1340,905)"/>
<path d="M0 0 C0.66 0.33 1.32 0.66 2 1 C1.05066101 4.35433109 0.10251165 7.69246505 -1 11 C-1.66 11 -2.32 11 -3 11 C-2.67 9.35 -2.34 7.7 -2 6 C-1.34 6 -0.68 6 0 6 C0 4.02 0 2.04 0 0 Z " fill="#22AD5D" transform="translate(604,893)"/>
<path d="M0 0 C3.36720387 1.39332574 4.9859524 2.9789286 7 6 C6.01 6.495 6.01 6.495 5 7 C5 6.34 5 5.68 5 5 C4.34 5 3.68 5 3 5 C2.67 5.66 2.34 6.32 2 7 C1.34 4.69 0.68 2.38 0 0 Z " fill="#EBF6EF" transform="translate(1296,889)"/>
<path d="M0 0 C3.26460973 1.80412643 4.88929795 2.83394693 7 6 C2.25 5.125 2.25 5.125 0 4 C0 2.68 0 1.36 0 0 Z " fill="#1CAC5B" transform="translate(1352,832)"/>
<path d="M0 0 C0.33 0.66 0.66 1.32 1 2 C1.99 2 2.98 2 4 2 C4 2.99 4 3.98 4 5 C2.68 5.33 1.36 5.66 0 6 C-0.66 5.01 -1.32 4.02 -2 3 C-1.34 2.01 -0.68 1.02 0 0 Z " fill="#EAF7EE" transform="translate(652,802)"/>
<path d="M0 0 C0.99 0.33 1.98 0.66 3 1 C1.60147088 3.79705825 -0.13651858 3.90914993 -3 5 C-3.99 5.66 -4.98 6.32 -6 7 C-6 6.01 -6 5.02 -6 4 C-3.1875 1.75 -3.1875 1.75 0 0 Z " fill="#E0F3E8" transform="translate(750,708)"/>
<path d="M0 0 C0.66 0 1.32 0 2 0 C2 0.66 2 1.32 2 2 C3.32 2.33 4.64 2.66 6 3 C-2.03571429 5.27678571 -2.03571429 5.27678571 -6 4 C-4.02 3.67 -2.04 3.34 0 3 C0 2.01 0 1.02 0 0 Z " fill="#40B775" transform="translate(1006,1386)"/>
<path d="M0 0 C-0.99 0.66 -1.98 1.32 -3 2 C-2.01 2.99 -1.02 3.98 0 5 C-3.68754757 4.50168276 -5.60490662 3.89932357 -8 1 C-2.25 -1.125 -2.25 -1.125 0 0 Z " fill="#E1F2E6" transform="translate(1082,1370)"/>
<path d="M0 0 C-0.66 1.32 -1.32 2.64 -2 4 C-4.64 3.67 -7.28 3.34 -10 3 C-6.64781163 0.76520776 -4.01177204 0 0 0 Z " fill="#2FB26A" transform="translate(1034,1344)"/>
<path d="M0 0 C0.66 0.99 1.32 1.98 2 3 C0.35 4.65 -1.3 6.3 -3 8 C-3.36923077 3.44615385 -3.36923077 3.44615385 -1.5 1.1875 C-1.005 0.795625 -0.51 0.40375 0 0 Z " fill="#1BAC59" transform="translate(1236,1255)"/>
<path d="M0 0 C1.32 1.32 2.64 2.64 4 4 C3.34 4 2.68 4 2 4 C2 4.99 2 5.98 2 7 C0.68 6.67 -0.64 6.34 -2 6 C-1.67 5.38125 -1.34 4.7625 -1 4.125 C0.14193235 2.08981656 0.14193235 2.08981656 0 0 Z " fill="#EEF8F2" transform="translate(1170,1104)"/>
<path d="M0 0 C0.99 0 1.98 0 3 0 C1.95125002 2.62187494 1.35068687 3.79371361 -1.125 5.25 C-1.74375 5.4975 -2.3625 5.745 -3 6 C-2.67 4.68 -2.34 3.36 -2 2 C-1.34 2 -0.68 2 0 2 C0 1.34 0 0.68 0 0 Z " fill="#1FAC5C" transform="translate(880,1043)"/>
<path d="M0 0 C0.99 0.33 1.98 0.66 3 1 C2.67 2.65 2.34 4.3 2 6 C0.35 4.68 -1.3 3.36 -3 2 C-2.01 1.34 -1.02 0.68 0 0 Z " fill="#E7F5EC" transform="translate(1078,1024)"/>
<path d="M0 0 C0.99 0.33 1.98 0.66 3 1 C2.67 2.32 2.34 3.64 2 5 C0.02 5.33 -1.96 5.66 -4 6 C-2.84826645 3.53199953 -1.95216435 1.95216435 0 0 Z " fill="#25AF62" transform="translate(860,1023)"/>
<path d="M0 0 C1.37562854 1.28965176 2.70766393 2.62689293 4 4 C4 4.66 4 5.32 4 6 C3.34 6 2.68 6 2 6 C1.67 6.66 1.34 7.32 1 8 C-0.35439668 5.29120665 -0.06501451 2.99066732 0 0 Z " fill="#19AA58" transform="translate(1009,910)"/>
<path d="M0 0 C0.86625 0.3403125 0.86625 0.3403125 1.75 0.6875 C1.09 0.6875 0.43 0.6875 -0.25 0.6875 C-0.58 2.0075 -0.91 3.3275 -1.25 4.6875 C-3.725 3.6975 -3.725 3.6975 -6.25 2.6875 C-2.80384615 -0.38942308 -2.80384615 -0.38942308 0 0 Z " fill="#2BB266" transform="translate(816.25,842.3125)"/>
<path d="M0 0 C-0.33 1.32 -0.66 2.64 -1 4 C-3.31 4 -5.62 4 -8 4 C-5.57415142 1.34311822 -3.76063134 0 0 0 Z " fill="#28AF63" transform="translate(768,655)"/>
<path d="M0 0 C0 0.66 0 1.32 0 2 C1.98 2 3.96 2 6 2 C6 2.33 6 2.66 6 3 C1.48382401 3.07654536 -2.59085217 3.10228696 -7 2 C-4.35261084 0.5393715 -3.10551666 0 0 0 Z " fill="#3FB975" transform="translate(886,1389)"/>
<path d="M0 0 C2.31 1.65 4.62 3.3 7 5 C6.67 5.66 6.34 6.32 6 7 C3.53199953 5.84826645 1.95216435 4.95216435 0 3 C0 2.01 0 1.02 0 0 Z " fill="#E8F5ED" transform="translate(804,1232)"/>
<path d="M0 0 C-0.8125 1.9375 -0.8125 1.9375 -2 4 C-2.99 4.33 -3.98 4.66 -5 5 C-5.66 4.34 -6.32 3.68 -7 3 C-2.25 0 -2.25 0 0 0 Z " fill="#25AE64" transform="translate(821,1145)"/>
<path d="M0 0 C1.27351308 2.54702616 0.80191925 3.4282945 0.0625 6.125 C-0.13214844 6.84945313 -0.32679687 7.57390625 -0.52734375 8.3203125 C-0.68332031 8.87460938 -0.83929687 9.42890625 -1 10 C-1.66 9.34 -2.32 8.68 -3 8 C-3 6.68 -3 5.36 -3 4 C-2.34 4 -1.68 4 -1 4 C-0.67 2.68 -0.34 1.36 0 0 Z " fill="#28B166" transform="translate(1319,1096)"/>
<path d="M0 0 C2.31 0 4.62 0 7 0 C5.73134318 2.53731364 4.50290879 2.78646846 2 4 C1.34 4.66 0.68 5.32 0 6 C0 4.02 0 2.04 0 0 Z " fill="#F3F9F6" transform="translate(1017,1036)"/>
<path d="M0 0 C1.98 1.65 3.96 3.3 6 5 C2.25 6.125 2.25 6.125 0 5 C0 3.35 0 1.7 0 0 Z " fill="#33B26A" transform="translate(1217,890)"/>
<path d="M0 0 C3.24208567 0.35049575 4.61527704 0.56221181 6.8125 3.0625 C7.204375 3.701875 7.59625 4.34125 8 5 C5 5 5 5 2.3125 2.5 C1.549375 1.675 0.78625 0.85 0 0 Z " fill="#E9F7F0" transform="translate(1215,888)"/>
<path d="M0 0 C1.67542976 0.28604898 3.34385343 0.61781233 5 1 C4.67 2.65 4.34 4.3 4 6 C2.35 4.35 0.7 2.7 -1 1 C-0.67 0.67 -0.34 0.34 0 0 Z " fill="#E2F4EA" transform="translate(1122,860)"/>
<path d="M0 0 C0.66 0.66 1.32 1.32 2 2 C-2.82142857 7.22321429 -2.82142857 7.22321429 -7 8 C-6.02133662 6.85373678 -5.04205413 5.70800212 -4.0625 4.5625 C-3.51722656 3.92441406 -2.97195313 3.28632812 -2.41015625 2.62890625 C-1.63204305 1.73008851 -0.84063472 0.84063472 0 0 Z " fill="#E0F5E7" transform="translate(1207,788)"/>
<path d="M0 0 C1.32087692 2.17556199 2.07112439 3.43100487 1.75 6 C0.96713323 8.08764473 0.05252193 10.03529239 -1 12 C-1.14285714 3.42857143 -1.14285714 3.42857143 0 0 Z " fill="#49BC7C" transform="translate(1058,782)"/>
<path d="M0 0 C1.24546405 2.49092811 0.7767578 3.41080733 0 6 C-1.32 6.33 -2.64 6.66 -4 7 C-4 7.66 -4 8.32 -4 9 C-4.66 8.67 -5.32 8.34 -6 8 C-4.02 5.36 -2.04 2.72 0 0 Z " fill="#24AC60" transform="translate(634,762)"/>
<path d="M0 0 C0.625 1.875 0.625 1.875 1 4 C-1.15634036 6.15634036 -3.37098712 7.47793991 -6 9 C-4.47291037 5.56404834 -2.40072955 2.88087546 0 0 Z " fill="#DCF3E6" transform="translate(921,759)"/>
<path d="M0 0 C-3.72965139 2.03435531 -5.66905042 3 -10 3 C-6.81859267 -0.48439851 -4.56758339 -1.41752588 0 0 Z " fill="#39B56E" transform="translate(1180,745)"/>
<path d="M0 0 C2.88437779 1.29299694 4.87219421 2.65941363 7 5 C5.35 5.33 3.7 5.66 2 6 C1.34 4.02 0.68 2.04 0 0 Z " fill="#1CAC5B" transform="translate(1078,739)"/>
<path d="M0 0 C0.99 0.33 1.98 0.66 3 1 C3.33 1.99 3.66 2.98 4 4 C2.02 4.99 2.02 4.99 0 6 C-1.125 2.25 -1.125 2.25 0 0 Z " fill="#19AB58" transform="translate(1170,1314)"/>
<path d="M0 0 C0.66 0.33 1.32 0.66 2 1 C2 1.99 2 2.98 2 4 C-0.375 4.625 -0.375 4.625 -3 5 C-3.66 4.34 -4.32 3.68 -5 3 C-2.625 1.4375 -2.625 1.4375 0 0 Z " fill="#29AF65" transform="translate(1121,1306)"/>
<path d="M0 0 C1.32 0.66 2.64 1.32 4 2 C3.67 3.65 3.34 5.3 3 7 C1.68 5.68 0.36 4.36 -1 3 C-0.67 2.01 -0.34 1.02 0 0 Z " fill="#1AAA58" transform="translate(626,1233)"/>
<path d="M0 0 C0.66 0 1.32 0 2 0 C2 0.66 2 1.32 2 2 C2.99 2.33 3.98 2.66 5 3 C4.34 3 3.68 3 3 3 C3 3.66 3 4.32 3 5 C1.68 4.67 0.36 4.34 -1 4 C-1 1 -1 1 0 0 Z M1 2 C2 4 2 4 2 4 Z " fill="#17AA58" transform="translate(1010,1225)"/>
<path d="M0 0 C2.31 1.65 4.62 3.3 7 5 C5.68 5.33 4.36 5.66 3 6 C1.25 4.75 1.25 4.75 0 3 C0 2.01 0 1.02 0 0 Z " fill="#28B064" transform="translate(1041,1224)"/>
<path d="M0 0 C0.33 0 0.66 0 1 0 C1.25 2.3125 1.25 2.3125 1 5 C-1 6.8125 -1 6.8125 -3 8 C-3.66 7.67 -4.32 7.34 -5 7 C-4.19152271 5.83054208 -3.37810888 4.66449539 -2.5625 3.5 C-2.11003906 2.8503125 -1.65757812 2.200625 -1.19140625 1.53125 C-0.79824219 1.0259375 -0.40507813 0.520625 0 0 Z " fill="#DCF1E4" transform="translate(889,1223)"/>
<path d="M0 0 C1.32 0.99 2.64 1.98 4 3 C2.68 3.99 1.36 4.98 0 6 C-0.66 4.68 -1.32 3.36 -2 2 C-1.34 1.34 -0.68 0.68 0 0 Z " fill="#EEF9F2" transform="translate(1210,1224)"/>
<path d="M0 0 C0.66 0.33 1.32 0.66 2 1 C1.1875 3.4375 1.1875 3.4375 0 6 C-0.99 6.33 -1.98 6.66 -3 7 C-3.33 5.68 -3.66 4.36 -4 3 C-2.68 2.01 -1.36 1.02 0 0 Z " fill="#F5FAF6" transform="translate(1015,1217)"/>
<path d="M0 0 C0.33 0 0.66 0 1 0 C1 2.31 1 4.62 1 7 C-0.98 7.99 -0.98 7.99 -3 9 C-2.01 6.03 -1.02 3.06 0 0 Z " fill="#37B66F" transform="translate(1266,1137)"/>
<path d="M0 0 C0.33 0 0.66 0 1 0 C1 1.98 1 3.96 1 6 C-0.32 6.33 -1.64 6.66 -3 7 C-2.25 2.25 -2.25 2.25 0 0 Z " fill="#27AF63" transform="translate(1092,1049)"/>
<path d="M0 0 C0.66 0 1.32 0 2 0 C1.67 1.32 1.34 2.64 1 4 C-0.65 4.33 -2.3 4.66 -4 5 C-2.71937515 3.2925002 -1.38232443 1.62626404 0 0 Z " fill="#27AE62" transform="translate(1030,1029)"/>
<path d="M0 0 C1.32 1.32 2.64 2.64 4 4 C3.67 4.66 3.34 5.32 3 6 C2.01 5.67 1.02 5.34 0 5 C-0.99 5.495 -0.99 5.495 -2 6 C-1.34 4.02 -0.68 2.04 0 0 Z " fill="#30B369" transform="translate(692,1002)"/>
<path d="M0 0 C2.50037734 2.17424117 3.43628586 3.73045798 4 7 C2.68 6.67 1.36 6.34 0 6 C0 4.02 0 2.04 0 0 Z " fill="#1CAB5A" transform="translate(1281,984)"/>
<path d="M0 0 C-0.99 0.99 -1.98 1.98 -3 3 C-3 2.01 -3 1.02 -3 0 C-4.98 0.33 -6.96 0.66 -9 1 C-9 0.34 -9 -0.32 -9 -1 C-5.79937313 -2.60031344 -3.27728194 -1.03173691 0 0 Z " fill="#EFF8F4" transform="translate(801,850)"/>
<path d="M0 0 C1.68762851 1.6454378 3.3540349 3.31288577 5 5 C5 5.33 5 5.66 5 6 C3.35 6 1.7 6 0 6 C0 4 0 2 0 0 Z " fill="#E4F5EA" transform="translate(874,759)"/>
<path d="M0 0 C2.475 0.495 2.475 0.495 5 1 C5 3.31 5 5.62 5 8 C2.74754119 5.31158141 1.11786042 3.35358125 0 0 Z " fill="#22AB5E" transform="translate(984,713)"/>
<path d="M0 0 C-0.99 0.33 -1.98 0.66 -3 1 C-3 1.99 -3 2.98 -3 4 C-3.66 3.67 -4.32 3.34 -5 3 C-4.67 2.34 -4.34 1.68 -4 1 C-5.98 1 -7.96 1 -10 1 C-10 0.67 -10 0.34 -10 0 C-6.33694766 -0.74926071 -3.57644848 -1.2380014 0 0 Z " fill="#C1E8D1" transform="translate(880,659)"/>
<path d="M0 0 C0 3.90838866 -1.50567876 5.11594107 -4 8 C-4.66 7.67 -5.32 7.34 -6 7 C-4.02 4.69 -2.04 2.38 0 0 Z " fill="#2DB066" transform="translate(1147,539)"/>
</svg>
